<svg xmlns="http://www.w3.org/2000/svg" width="512" height="512" viewBox="0 0 64 64">
    <g>
        <g>
            <path fill="#f9e109" d="M26 18.664h-4v-8A2 2 0 0 1 22.891 9l9-6 2.218 3.328L26 11.734z"/>
            <path fill="#fcbc04" d="M34.11 6.33L26 11.73v6.93h-4v-8A1.994 1.994 0 0 1 22.89 9l1.01-.68a5.35 5.35 0 0 0 4.82-.75l4.19-3.05z"/>
            <path fill="#f8664f" d="M35 61H13L9 26h30z"/>
            <path fill="#84d2f4" d="M11 22h26a2 2 0 012 2v2H9v-2a2 2 0 012-2zM16 18h16a2 2 0 012 2v2H14v-2a2 2 0 012-2z"/>
            <path fill="#cc5144" d="M38.66 29H16a34.147 34.147 0 0 0 21.53 9.9L35 61H13L9 26h30z"/>
            <g fill="#57b7eb">
                <path d="M39 24v2H9v-2a2.006 2.006 0 012-2 2.006 2.006 0 002 2zM34 20v2H14v-2a2.006 2.006 0 012-2 2.006 2.006 0 002 2z"/>
            </g>
            <g>
                <path fill="#e59730" d="M45 23l-2 25-1 11 5 1 3-36-3-1.6z"/>
                <path fill="#fcbc04" d="M39 28l2 24h6l-2-25-3-3z"/>
                <path fill="#e59730" d="M47 52h-6l-2-24 1.18-1.57L42 41h1l1.09-6.36L45 34l.61.61z"/>
                <path fill="#f9e109" d="M37 31l-2.963-1.018L33 33l5 16 4.667-2z"/>
                <path fill="#fcbc04" d="M42.67 47L38 49l-5-16 1.02-2.95 1.83 5.5a17.733 17.733 0 0 0 5.66 8.18z"/>
                <path fill="#f9e109" d="M55 24l-4.079 19H55l3-14z"/>
                <path fill="#fcbc04" d="M54.848 33.325l1.6-6.918L55 24l-4.079 19H55l1.363-6.359a3 3 0 0 1-1.515-3.316z"/>
                <path fill="#f9e109" d="M27 30l7 19 4-1-7-18z"/>
                <path fill="#fcbc04" d="M27 30l7 19 2-.5L28.858 30z"/>
                <path fill="#f9e109" d="M49 27l-3 24 4-1 4-21z"/>
                <path fill="#fcbc04" d="M51.72 40.97L50 50l-4 1 3-24 1.94.78-.8 11.23a1.856 1.856 0 0 0 1.58 1.96z"/>
                <path fill="#f9e109" d="M48 52h-4l1-18 4 1z"/>
                <path fill="#fcbc04" d="M46.732 42.567l.226-8.077L45 34l-1 18h4l.393-6.674a3 3 0 0 1-1.661-2.759z"/>
                <path fill="#84d2f4" d="M53 39c0 3.866-4.029 7-9 7s-9-3.134-9-7h-5l3 22h22l3-22z"/>
                <path fill="#57b7eb" d="M55.55 57L55 61H33l-3-22h5a6.112 6.112 0 0 0 2.07 4.46A15.991 15.991 0 0 0 52.88 57z"/>
                <circle cx="44" cy="54" r="3" fill="#f9e109"/>
                <path fill="#fcbc04" d="M46.49 55.67A3 3 0 0 1 41 54a2.947 2.947 0 0 1 .54-1.71 15.951 15.951 0 0 0 4.95 3.38z"/>
            </g>
            <g>
                <path fill="#f89c8d" d="M30 51H12a4 4 0 0 1-4-4 4 4 0 0 1 4-4h18a4 4 0 0 1 4 4 4 4 0 0 1-4 4z"/>
                <path fill="#f8664f" d="M32 49a3.931 3.931 0 0 0 1.64-.36 3.865 3.865 0 0 1-.81 1.19A4.025 4.025 0 0 1 30 51H12a4 4 0 0 1-2.83-6.83 3.865 3.865 0 0 1 1.19-.81A3.931 3.931 0 0 1 12 43h18a4 4 0 0 1 2.64 1 3.833 3.833 0 0 1 1.1 1.6 2.116 2.116 0 0 1-1.85 1.09 2.163 2.163 0 0 1-.95-.22 2.076 2.076 0 0 0-1.88 0l-2.12 1.06a2.076 2.076 0 0 1-1.88 0l-2.12-1.06a2.076 2.076 0 0 0-1.88 0l-2.12 1.06a2.076 2.076 0 0 1-1.88 0l-2.12-1.06a2.076 2.076 0 0 0-1.88 0l-1.61.81a3.1 3.1 0 0 1-.58.21A3.984 3.984 0 0 0 14 49z"/>
                <path fill="#fcbc04" d="M6 55h30v2a4 4 0 0 1-4 4H10a4 4 0 0 1-4-4v-2z"/>
                <path fill="#e59730" d="M23.8 55l-.8 1-.8-1z"/>
                <path fill="#e59730" d="M23.8 55l-.8 1-.8-1z"/>
                <path fill="#cc5144" d="M32 55H10a2 2 0 0 1-2-2 2 2 0 0 1 2-2h22a2 2 0 0 1 2 2 2 2 0 0 1-2 2z"/>
                <path fill="#f7f754" d="M24 56l-4-5h8z"/>
                <path fill="#f9e109" d="M23.657 52.072L22.8 51H20l4 5 2.265-2.831a2.974 2.974 0 0 1-2.608-1.097z"/>
                <path fill="#c4f236" d="M7 43a3.234 3.234 0 0 0 1.789 2.894l.764.382a3.232 3.232 0 0 0 2.894 0l1.609-.8a2.112 2.112 0 0 1 1.888 0l2.112 1.056a2.112 2.112 0 0 0 1.888 0l2.112-1.056a2.112 2.112 0 0 1 1.888 0l2.112 1.056a2.112 2.112 0 0 0 1.888 0l2.112-1.056a2.112 2.112 0 0 1 1.888 0A2.112 2.112 0 0 0 35 43.584V43z"/>
                <path fill="#fcbc04" d="M26 33H16A10 10 0 0 0 6 43h30a10 10 0 0 0-10-10z"/>
                <path fill="#e59730" d="M36 43H6a10 10 0 017.32-9.63A9 9 0 0022 40h13.54a9.908 9.908 0 01.46 3zM36 57a4 4 0 01-4 4H10a4 4 0 01-4-4v-2h2.13A3.992 3.992 0 0012 58h21a4.941 4.941 0 003-1z"/>
                <path fill="#a1d51c" d="M35 43v.58a1.424 1.424 0 0 1-.05.42H8.7a3.058 3.058 0 0 0 1.09.89l.76.39a3.284 3.284 0 0 0 2.9 0l1.61-.81a2.076 2.076 0 0 1 1.88 0l2.12 1.06a2.076 2.076 0 0 0 1.88 0l2.12-1.06a2.076 2.076 0 0 1 1.88 0l2.12 1.06a2.076 2.076 0 0 0 1.88 0l2.12-1.06a2.076 2.076 0 0 1 1.88 0 2.1 2.1 0 0 0 1.86.01 2.119 2.119 0 0 1-1.91 1.21 2.163 2.163 0 0 1-.95-.22 2.076 2.076 0 0 0-1.88 0l-2.12 1.06a2.076 2.076 0 0 1-1.88 0l-2.12-1.06a2.076 2.076 0 0 0-1.88 0l-2.12 1.06a2.076 2.076 0 0 1-1.88 0l-2.12-1.06a2.076 2.076 0 0 0-1.88 0l-1.61.81a3.284 3.284 0 0 1-2.9 0l-.76-.39A3.21 3.21 0 0 1 7 43z"/>
            </g>
        </g>
        <g fill="#464a51">
            <path d="M48 54a4 4 0 1 0-4 4 4 4 0 0 0 4-4zm-6 0a2 2 0 1 1 2 2 2 2 0 0 1-2-2z"/>
            <path d="M56.115 52.818a1 1 0 00-1.126.855L54.127 60H39a1 1 0 000 2h16a1 1 0 00.991-.865l.981-7.191a1 1 0 00-.857-1.126zM58.753 38.342A1 1 0 0058 38h-4.7l1.678-8.813a.98.98 0 000-.354l.461-2.146 1.493 2.489-1.202 5.645a1 1 0 00.768 1.187 1.022 1.022 0 00.211.022 1 1 0 00.976-.79l1.292-6.031a.993.993 0 00-.12-.724l-3-5a1 1 0 00-1.835.3L53.2 27.6l-3.833-1.533a1 1 0 00-1.363.8l-.83 6.638-.667-.167L46 26.92a1 1 0 00-.26-.584l.2-2.575.951-.285 2.636 1.406a1 1 0 10.942-1.764l-3-1.6a1 1 0 00-.758-.076l-2 .6a1 1 0 00-.71.878l-.124 1.546-1.172-1.173a1 1 0 00-1.505.107L40 25v-1a3 3 0 00-3-3h-2v-1a3 3 0 00-3-3h-5v-4.73l7.664-5.11a1 1 0 00.277-1.387l-2.218-3.328a1 1 0 00-1.387-.277l-9 6A2.993 2.993 0 0021 10.664V17h-5a3 3 0 00-3 3v1h-2a3 3 0 00-3 3v2c0 .02.6 5.268.6 5.268a1 1 0 00.992.887.872.872 0 00.114-.007 1 1 0 00.88-1.106L10.12 27H18a1 1 0 000-2h-8v-1a1 1 0 011-1h26a1 1 0 011 1v1H22a1 1 0 000 2h16.5l-.3.4a1 1 0 00-.2.683l.3 3.605-.362-1.022a1 1 0 00-.617-.612l-2.963-1.018a1 1 0 00-1.27.621l-.541 1.573-.619-1.592A1 1 0 0031 29h-4a1 1 0 00-.939 1.346l.623 1.689C26.456 32.02 26.231 32 26 32H16a10.949 10.949 0 00-6.065 1.826 1 1 0 101.106 1.667A8.957 8.957 0 0116 34h10a9.012 9.012 0 018.944 8H7.056a8.945 8.945 0 011.438-3.959 1 1 0 00-1.668-1.1A10.956 10.956 0 005 43a1 1 0 001 1h.126a4.188 4.188 0 001.021 1.888A4.816 4.816 0 007 47a4.976 4.976 0 001.41 3.466A2.939 2.939 0 007.184 54H6a1 1 0 00-1 1v2a5.006 5.006 0 005 5h3a1 1 0 000-2h-3a3 3 0 01-3-3v-1h15.719l.5.624a1 1 0 001.562 0l3.7-4.624H32a1 1 0 010 2h-2.2a1 1 0 100 2H35v1a3 3 0 01-3 3H17a1 1 0 000 2h15a5.006 5.006 0 005-5v-2a1 1 0 00-1-1h-1.184a2.939 2.939 0 00-1.226-3.534A4.976 4.976 0 0035 47a4.857 4.857 0 00-.125-1.053A3.048 3.048 0 0035.947 44H36a.953.953 0 00.184-.037A11 11 0 0044 47c5.091 0 9.305-3.059 9.922-7h2.932l-1.324 9.708a1 1 0 00.857 1.125.886.886 0 00.135.01 1 1 0 00.991-.865l1.478-10.843a1 1 0 00-.238-.793zM23 10.664a1 1 0 01.445-.832l8.168-5.445 1.11 1.664-7.278 4.849a1 1 0 00-.445.832V17h-2zM15 21v-1a1 1 0 011-1h16a1 1 0 011 1v1zm30.932 14.264l2.021.5-.508 8.638a9.894 9.894 0 01-2.05.5zm-3.824-9.741l1.924 1.924.457 5.711a.875.875 0 00-.083.037 1 1 0 00-.4.749l-.613 11.023a10.147 10.147 0 01-2-.318L40.028 28.3zM28.435 31h1.881l.9 2.32a10.926 10.926 0 00-2.263-.905zm4.534 15.69A2.689 2.689 0 0133 47a3 3 0 01-3 3H12a3 3 0 01-2.987-2.876l.092.047a4.257 4.257 0 003.789 0l1.609-.8a1.108 1.108 0 01.994 0l2.111 1.055a3.126 3.126 0 002.784 0l2.108-1.059a1.108 1.108 0 01.994 0l2.111 1.055a3.126 3.126 0 002.784 0l2.111-1.055a1.108 1.108 0 01.994 0 3.109 3.109 0 001.475.323zM10 54a1 1 0 010-2h9.519l1.6 2zm14 .4L22.081 52h3.838zm9.473-9.87a1.064 1.064 0 01-.114.053.157.157 0 00-.023 0c-.013.005-.02.016-.033.021a1.077 1.077 0 01-.911-.029 3.126 3.126 0 00-2.784 0L27.5 45.633a1.108 1.108 0 01-.994 0l-2.111-1.055a3.126 3.126 0 00-2.784 0L19.5 45.633a1.108 1.108 0 01-.994 0l-2.111-1.055a3.126 3.126 0 00-2.784 0l-1.608.8a2.247 2.247 0 01-2 0L9.236 45a2.214 2.214 0 01-.982-1h25.658a1.091 1.091 0 01-.439.529zm3.451-2.779a10.921 10.921 0 00-1.531-4.451l-1.34-4.289.605-1.763 1.561.537 2.738 7.732.359 4.306a6.965 6.965 0 01-2.392-2.073zm12.587 1.588l.489-8.28a1 1 0 00-.756-1.029l-.112-.03.7-5.592 3.031 1.213-2.469 12.97a7.075 7.075 0 01-.883.747z"/>
            <circle cx="23" cy="38" r="1"/>
            <circle cx="19" cy="37" r="1"/>
            <circle cx="16" cy="39" r="1"/>
            <circle cx="31" cy="39" r="1"/>
            <circle cx="12" cy="38" r="1"/>
            <circle cx="27" cy="37" r="1"/>
        </g>
    </g>
</svg>
